<svg width="408" height="394" viewBox="0 0 408 394" fill="none" xmlns="http://www.w3.org/2000/svg">
<path fill-rule="evenodd" clip-rule="evenodd" d="M46.1477 288.516C69.3032 274.022 90.6416 287.31 107.122 299.158C120.795 308.988 130.925 324.076 120.68 342.097C110.587 359.85 87.3305 367.701 67.0475 369.647C46.864 371.584 27.7391 367.278 23.6503 351.406C18.4051 331.044 21.9888 303.638 46.1477 288.516Z" fill="#0CA941"/>
<path fill-rule="evenodd" clip-rule="evenodd" d="M78.5091 104.412C103.923 114.432 122.474 97.4688 136.512 82.8099C148.16 70.6472 155.363 53.9625 141.998 38.1161C128.832 22.5064 104.532 19.0358 84.2347 20.8284C64.0372 22.6121 46.0207 30.3389 44.9006 46.6913C43.4636 67.6686 51.9941 93.9587 78.5091 104.412Z" fill="#EA671C"/>
<path fill-rule="evenodd" clip-rule="evenodd" d="M329.319 250.516C354.932 260.017 373.134 242.68 386.872 227.738C398.269 215.341 405.132 198.514 391.447 182.942C377.966 167.604 353.601 164.628 333.344 166.833C313.187 169.027 295.332 177.118 294.544 193.49C293.534 214.492 302.597 240.603 329.319 250.516Z" fill="#0CA941"/>
</svg>
